Coordinates
version=1
nRows=33
nColumns=38
inDegrees=no

Units are S.I. units (second, meters, Newtons, ...)
If the header above contains a line with 'inDegrees', this indicates whether rotational values are in degrees (yes) or radians (no).

endheader
time	pelvis_tilt	pelvis_list	pelvis_rotation	pelvis_tx	pelvis_ty	pelvis_tz	hip_flexion_r	hip_adduction_r	hip_rotation_r	knee_angle_r	ankle_angle_r	subtalar_angle_r	mtp_angle_r	hip_flexion_l	hip_adduction_l	hip_rotation_l	knee_angle_l	ankle_angle_l	subtalar_angle_l	mtp_angle_l	lumbar_extension	lumbar_bending	lumbar_rotation	arm_flex_r	arm_add_r	arm_rot_r	elbow_flex_r	pro_sup_r	wrist_flex_r	wrist_dev_r	arm_flex_l	arm_add_l	arm_rot_l	elbow_flex_l	pro_sup_l	wrist_flex_l	wrist_dev_l
0	2.99106	1.51087	-1.36767	0.73192	-0.460448	1.0433	0.0162842	-0.0438195	-0.298167	0.453684	-0.127806	0	0	-0.0791175	-0.134806	-0.247964	0.166183	-0.432855	0	0	-0.068616	-0.0209333	-0.0267736	-0.0728447	-0.227713	0.808754	0.183251	0.849746	0	0	-0.0293303	-0.214627	0.476195	0.0964198	1.5708	0	0
0.01	2.98153	1.48509	-1.35475	0.731625	-0.460567	1.04326	-0.014082	-0.0382138	-0.312096	0.449088	-0.125001	0	0	-0.070463	-0.169257	-0.336312	0.26617	-0.402507	0	0	-0.0958639	0.00353541	-0.0524276	-0.0891032	-0.335443	1.06196	0.337581	0.592657	0	0	-0.0381076	-0.202483	0.459202	0.089854	1.5708	0	0
0.02	2.97692	1.48405	-1.34869	0.732266	-0.45992	1.04324	-0.0172699	-0.036233	-0.312464	0.446282	-0.124653	0	0	-0.069804	-0.17094	-0.334027	0.269445	-0.40135	0	0	-0.0918866	0.00436855	-0.0537614	-0.10601	-0.335889	1.08384	0.326693	0.58094	0	0	-0.0441464	-0.201374	0.463621	0.0844276	1.5708	0	0
0.03	2.97367	1.48392	-1.34318	0.732822	-0.459286	1.04321	-0.0193565	-0.0345555	-0.312757	0.444061	-0.124071	0	0	-0.068234	-0.171864	-0.329528	0.27201	-0.399739	0	0	-0.091531	0.00472329	-0.0493547	-0.100252	-0.321315	1.22652	0.278817	0.494745	0	0	-0.0448572	-0.201354	0.475398	0.0803225	1.5708	0	0
0.04	2.97067	1.48326	-1.3382	0.733347	-0.458781	1.04326	-0.0217333	-0.0327173	-0.31221	0.441894	-0.123964	0	0	-0.0677982	-0.17245	-0.324491	0.273016	-0.399219	0	0	-0.0898609	0.00506937	-0.0467195	-0.11375	-0.314562	1.24621	0.259325	0.491318	0	0	-0.0467566	-0.200886	0.475649	0.0761409	1.5708	0	0
0.05	2.96309	1.48326	-1.32934	0.733925	-0.458236	1.0433	-0.0233023	-0.030467	-0.310116	0.439537	-0.124094	0	0	-0.0671797	-0.17311	-0.31992	0.273154	-0.398744	0	0	-0.0861752	0.00561497	-0.0444718	-0.127661	-0.312331	1.2635	0.249932	0.492803	0	0	-0.0498286	-0.200517	0.474575	0.0730548	1.5708	0	0
0.06	2.9596	1.4841	-1.32361	0.734404	-0.45758	1.04328	-0.0243378	-0.028924	-0.309458	0.437062	-0.124085	0	0	-0.0659445	-0.172988	-0.314237	0.272502	-0.398472	0	0	-0.0814975	0.00560878	-0.0421923	-0.141026	-0.308431	1.2773	0.239668	0.495235	0	0	-0.0525831	-0.200436	0.472557	0.0709123	1.5708	0	0
0.07	2.96089	1.48566	-1.32182	0.7348	-0.456849	1.04322	-0.0248197	-0.0280918	-0.309897	0.434904	-0.123816	0	0	-0.0641317	-0.172327	-0.308444	0.271501	-0.398564	0	0	-0.0757834	0.00506904	-0.0399302	-0.154578	-0.304005	1.28397	0.230692	0.496995	0	0	-0.0550833	-0.200891	0.469944	0.0702295	1.5708	0	0
0.08	2.95551	1.48818	-1.31447	0.73522	-0.456143	1.04313	-0.0236722	-0.0270119	-0.309277	0.433655	-0.123463	0	0	-0.0617474	-0.171856	-0.303839	0.269712	-0.398956	0	0	-0.0670448	0.00501105	-0.0378786	-0.169295	-0.304994	1.28622	0.232475	0.49942	0	0	-0.0592076	-0.201493	0.466505	0.07086	1.5708	0	0
0.09	2.9469	1.49146	-1.30413	0.735623	-0.455533	1.04306	-0.0212701	-0.0258804	-0.307077	0.432917	-0.123386	0	0	-0.0585008	-0.171362	-0.299229	0.2678	-0.399702	0	0	-0.0571679	0.00502387	-0.035372	-0.183702	-0.306135	1.28535	0.2356	0.501685	0	0	-0.0632432	-0.202486	0.461446	0.0728209	1.5708	0	0
0.1	2.94013	1.49481	-1.29525	0.73598	-0.454943	1.04301	-0.0188739	-0.0249905	-0.30471	0.432073	-0.123287	0	0	-0.0550493	-0.170783	-0.294835	0.266129	-0.400781	0	0	-0.0466611	0.0047241	-0.0322484	-0.198523	-0.306784	1.27964	0.239307	0.503187	0	0	-0.0661054	-0.203096	0.4571	0.0747267	1.5708	0	0
0.11	2.93135	1.49834	-1.28435	0.736321	-0.454323	1.04297	-0.0162728	-0.0241567	-0.303051	0.430903	-0.123233	0	0	-0.0514127	-0.170381	-0.290883	0.264635	-0.401814	0	0	-0.0361202	0.00452624	-0.0293727	-0.212671	-0.307214	1.27168	0.243295	0.504371	0	0	-0.0692404	-0.20407	0.455004	0.0788182	1.5708	0	0
0.12	2.92004	1.50292	-1.27081	0.73664	-0.453693	1.04288	-0.0123728	-0.0236778	-0.301735	0.429743	-0.123342	0	0	-0.0466875	-0.169658	-0.286069	0.262985	-0.402862	0	0	-0.024005	0.0040891	-0.0263509	-0.226841	-0.307193	1.261	0.247411	0.505796	0	0	-0.0728144	-0.205262	0.455564	0.0839186	1.5708	0	0
0.13	2.90459	1.50762	-1.25326	0.736959	-0.453139	1.04279	-0.00802553	-0.0230961	-0.300099	0.429152	-0.123559	0	0	-0.0417628	-0.169065	-0.281007	0.261422	-0.403675	0	0	-0.0116707	0.00370176	-0.0228586	-0.240771	-0.306708	1.24717	0.251482	0.507881	0	0	-0.0754417	-0.206137	0.457715	0.0883837	1.5708	0	0
0.14	2.88132	1.51272	-1.22822	0.737276	-0.452623	1.04269	-0.00289667	-0.022392	-0.297732	0.42911	-0.123916	0	0	-0.0363935	-0.168622	-0.276073	0.25982	-0.40433	0	0	0.00115773	0.00362101	-0.0186694	-0.254863	-0.305776	1.22803	0.255414	0.511381	0	0	-0.0776105	-0.206834	0.460338	0.0932835	1.5708	0	0
0.15	2.85399	1.51754	-1.19962	0.737631	-0.45211	1.04261	0.00208701	-0.0216195	-0.294988	0.429133	-0.124153	0	0	-0.0315347	-0.168314	-0.272204	0.258023	-0.405168	0	0	0.0132029	0.00378669	-0.014069	-0.268159	-0.304579	1.2076	0.259115	0.51633	0	0	-0.0798093	-0.207603	0.461936	0.0992234	1.5708	0	0
0.16	2.81749	1.5212	-1.16255	0.73789	-0.451725	1.04256	0.00646546	-0.0204749	-0.291563	0.429758	-0.124341	0	0	-0.0277702	-0.168668	-0.269993	0.256572	-0.406053	0	0	0.00590146	0.00370686	-0.0384792	-0.256761	-0.308932	1.18798	0.261696	0.545112	0	0	-0.0624945	-0.188043	0.398142	0.045094	1.5708	0	0
0.17	2.78693	1.52754	-1.13059	0.73831	-0.451161	1.0424	0.0129817	-0.0209426	-0.289244	0.430156	-0.124553	0	0	-0.0217312	-0.167228	-0.266119	0.254217	-0.408233	0	0	0.032826	0.00424807	-0.011558	-0.28941	-0.301143	1.14189	0.263764	0.560187	0	0	-0.0880659	-0.210082	0.450731	0.119296	1.5708	0	0
0.18	2.7634	1.53075	-1.10573	0.738593	-0.450861	1.04243	0.0162738	-0.0207025	-0.287348	0.430075	-0.12487	0	0	-0.0187922	-0.166617	-0.263572	0.252202	-0.409506	0	0	0.0419253	0.00453767	-0.00674828	-0.29946	-0.299104	1.12436	0.266426	0.568549	0	0	-0.088702	-0.211442	0.458865	0.127438	1.5708	0	0
0.19	2.71887	1.53265	-1.06066	0.738745	-0.450733	1.04247	0.0190508	-0.0193719	-0.284273	0.430362	-0.125497	0	0	-0.0164563	-0.167124	-0.262164	0.251209	-0.410522	0	0	0.0302339	0.0050717	-0.0341218	-0.281752	-0.304596	1.11501	0.268019	0.597056	0	0	-0.0639634	-0.186983	0.408149	0.0584099	1.5708	0	0
0.2	2.6973	1.53622	-1.03805	0.739222	-0.450423	1.04241	0.0225267	-0.0195339	-0.282626	0.430387	-0.125447	0	0	-0.013269	-0.166045	-0.260037	0.249563	-0.412297	0	0	0.0573449	0.00613294	0.00200846	-0.316987	-0.29323	1.06942	0.268951	0.610493	0	0	-0.0890452	-0.211821	0.459597	0.143048	1.5708	0	0
0.21	2.67681	1.53783	-1.01705	0.739547	-0.450248	1.04242	0.024188	-0.0190611	-0.280896	0.430281	-0.125357	0	0	-0.0120142	-0.165936	-0.260116	0.248208	-0.413441	0	0	0.0622464	0.00692113	0.00483763	-0.321111	-0.291309	1.05771	0.27005	0.620255	0	0	-0.0883525	-0.211735	0.464383	0.149983	1.5708	0	0
0.22	2.65166	1.53813	-0.99132	0.739643	-0.450252	1.04254	0.024853	-0.0180821	-0.279299	0.430092	-0.125785	0	0	-0.0116133	-0.166412	-0.260392	0.247007	-0.41517	0	0	0.0467785	0.0077915	-0.0251621	-0.297284	-0.297615	1.06011	0.26954	0.650228	0	0	-0.0680808	-0.190019	0.426087	0.0921627	1.5708	0	0
0.23	2.68864	1.5385	-1.0267	0.740021	-0.450165	1.04256	0.0240462	-0.0187715	-0.280457	0.429624	-0.125632	0	0	-0.012373	-0.165459	-0.259399	0.245152	-0.416485	0	0	0.0657264	0.00821097	0.00529801	-0.322219	-0.287204	1.03501	0.269045	0.65728	0	0	-0.0881224	-0.210173	0.451275	0.166188	1.5708	0	0
0.24	2.70238	1.53812	-1.03945	0.740244	-0.450145	1.04256	0.0233692	-0.0187047	-0.281429	0.429807	-0.125154	0	0	-0.0131703	-0.165767	-0.260176	0.244261	-0.417804	0	0	0.0671475	0.0089858	0.00676925	-0.321623	-0.28499	1.02856	0.26831	0.664759	0	0	-0.0851726	-0.20892	0.457578	0.17067	1.5708	0	0
0.25	2.72857	1.53715	-1.06462	0.740462	-0.450133	1.04253	0.0218393	-0.0187637	-0.283069	0.429893	-0.124403	0	0	-0.0148328	-0.166059	-0.26109	0.243268	-0.418951	0	0	0.0672961	0.00968323	0.00724757	-0.318974	-0.282938	1.02527	0.266848	0.672233	0	0	-0.0822509	-0.207524	0.459188	0.174995	1.5708	0	0
0.26	2.76151	1.53549	-1.09638	0.740654	-0.450213	1.0425	0.0195694	-0.0188714	-0.285143	0.429932	-0.123578	0	0	-0.0172171	-0.166294	-0.261175	0.242154	-0.419203	0	0	0.065817	0.0102662	0.00661052	-0.314234	-0.281158	1.02473	0.264918	0.678912	0	0	-0.0788714	-0.205939	0.458902	0.178711	1.5708	0	0
0.27	2.79418	1.5329	-1.12795	0.740846	-0.450392	1.04249	0.0164654	-0.0186111	-0.286784	0.430052	-0.122684	0	0	-0.0205254	-0.166881	-0.261541	0.241004	-0.419051	0	0	0.0627646	0.0110821	0.00536844	-0.307442	-0.279559	1.02693	0.262505	0.68452	0	0	-0.0744919	-0.203879	0.457975	0.180849	1.5708	0	0
0.28	2.83148	1.52971	-1.16385	0.741014	-0.450692	1.04249	0.0127993	-0.0184559	-0.288402	0.430367	-0.12173	0	0	-0.0242501	-0.16753	-0.262679	0.240186	-0.419074	0	0	0.0582824	0.0115725	0.00327176	-0.298768	-0.278144	1.03171	0.259936	0.688733	0	0	-0.0693591	-0.201758	0.457045	0.182153	1.5708	0	0
0.29	2.86093	1.52646	-1.1919	0.741169	-0.451015	1.04243	0.00925591	-0.0182374	-0.290057	0.430998	-0.120621	0	0	-0.0277729	-0.168548	-0.265203	0.239765	-0.419106	0	0	0.0535634	0.0122558	0.000734578	-0.288682	-0.277043	1.03861	0.257205	0.691224	0	0	-0.0640809	-0.199426	0.455865	0.182636	1.5708	0	0
0.3	2.88589	1.52221	-1.21598	0.741342	-0.451297	1.04237	0.00463226	-0.0176274	-0.291752	0.431318	-0.11927	0	0	-0.0322341	-0.169972	-0.267805	0.240237	-0.418444	0	0	0.0474309	0.0134345	-0.00183943	-0.276906	-0.27639	1.04927	0.254429	0.692271	0	0	-0.0580919	-0.196239	0.451424	0.181459	1.5708	0	0
0.31	2.91371	1.51722	-1.24327	0.741535	-0.451567	1.04236	-0.000805853	-0.0172505	-0.29388	0.431563	-0.117876	0	0	-0.0379157	-0.170992	-0.269425	0.240161	-0.417536	0	0	0.0398788	0.0142574	-0.0045938	-0.26353	-0.27584	1.06327	0.251752	0.692648	0	0	-0.0513508	-0.192582	0.445361	0.178971	1.5708	0	0
0.32	2.94532	1.51155	-1.2742	0.741721	-0.451896	1.0424	-0.00709072	-0.0172667	-0.2964	0.4318	-0.116304	0	0	-0.0445943	-0.171538	-0.270464	0.239384	-0.416393	0	0	0.0305263	0.0146147	-0.0084435	-0.247898	-0.275587	1.0803	0.249439	0.69246	0	0	-0.0438047	-0.188581	0.43659	0.175703	1.5708	0	0
